Format : MPEG-4
Format profile : Base Media
Codec ID : isom
File size : 323 MiB
Duration : 42mn 38s
Overall bit rate mode : Variable
Overall bit rate : 1 061 Kbps
Encoded date : UTC 2011-09-08 11:43:25
Tagged date : UTC 2011-09-08 11:43:25

Video
ID : 1
Format : AVC
Format/Info : Advanced Video Codec
Format profile : High@L3.1
Format settings, CABAC : Yes
Format settings, ReFrames : 5 frames
Codec ID : avc1
Codec ID/Info : Advanced Video Coding
Duration : 42mn 38s
Bit rate : 916 Kbps
Width : 720 pixels
Height : 404 pixels
Display aspect ratio : 16:9
Frame rate mode : Constant
Frame rate : 23.976 fps
Color space : YUV
Chroma subsampling : 4:2:0
Bit depth : 8 bits
Scan type : Progressive
Bits/(Pixel*Frame) : 0.131
Stream size : 279 MiB (86%)
Writing library : x264 core 120 r2164 da19765


Audio
ID : 2
Format : AAC
Format/Info : Advanced Audio Codec
Format profile : LC
Codec ID : 40
Duration : 42mn 38s
Bit rate mode : Variable
Bit rate : 139 Kbps
Maximum bit rate : 189 Kbps
Channel(s) : 2 channels
Channel positions : Front: L R
Sampling rate : 48.0 KHz
Compression mode : Lossy
Stream size : 42.4 MiB (13%)
Encoded date : UTC 2011-09-08 11:43:25
Tagged date : UTC 2011-09-08 11:43:25 